# xmcd CD database file
#
# Track frame offsets:
#	150
#	14390
#	27877
#	43342
#	55390
#	70332
#	82522
#	96130
#	108920
#	123927
#	139877
#	154637
#	168075
#	181542
#	193837
#	206042
#	222310
#	233802
#	248592
#	260877
#	273027
#	287090
#	300395
#	314912
#	329355
#
# Disc length: 4553 seconds
#
# Revision: 0
# Processed by: cddbd v1.4PL0 Copyright (c) Steve Scherf et al.
# Submitted via: CDex 1.50beta10
#
DISCID=6111c719
DTITLE=Tiny Parham and His Musicians - Volume 2
DYEAR=1930
DGENRE=Jazz
TTITLE0=Washboard Wiggles
TTITLE1=Pigs' Feet and Slaw
TTITLE2=Bombay
TTITLE3=Fat Man Blues
TTITLE4=Golden Lily
TTITLE5=Steel String Blues
TTITLE6=Sud Buster's Dream
TTITLE7=Dixieland Doin's
TTITLE8=Cathedral Blues
TTITLE9=Black Cat Moan
TTITLE10=Doin' the Jug-Jug
TTITLE11=Rock Bottom
TTITLE12=Rock Bottom #2
TTITLE13=Down Yonder
TTITLE14=Down Yonder #2
TTITLE15=Blue Moon Blues
TTITLE16=Squeeze Me
TTITLE17=Back to the Jungle
TTITLE18=Nervous Tension
TTITLE19=Nervous Tension #2
TTITLE20=Memphis Mamie
TTITLE21=Memphis Mamie #2
TTITLE22=Now That I've Found You
TTITLE23=My Dreams
TTITLE24=After All I've Done For You
EXTD=YEAR: 1930
EXTT0=
EXTT1=
EXTT2=
EXTT3=
EXTT4=
EXTT5=
EXTT6=
EXTT7=
EXTT8=
EXTT9=
EXTT10=
EXTT11=
EXTT12=
EXTT13=
EXTT14=
EXTT15=
EXTT16=
EXTT17=
EXTT18=
EXTT19=
EXTT20=
EXTT21=
EXTT22=
EXTT23=
EXTT24=
PLAYORDER=
